<svg width="49" height="49" viewBox="0 0 49 49" fill="none" xmlns="http://www.w3.org/2000/svg">
<path d="M27.747 24.6147L21.2613 24.3929C22.095 17.3089 27.6397 13.593 34.8358 13.6365C42.9971 13.593 49 20.2337 49 29.1319C49 39.1713 42.9096 45.325 34.6605 45.325C26.7186 45.325 21.9551 40.8329 21.253 35.1396C24.4368 33.8326 25.4784 32.42 27.4234 29.0284C27.2297 31.38 27.0056 32.0431 27.4234 34.4606C28.0377 37.7201 30.9747 39.632 34.485 39.6755C39.2677 39.632 42.4622 35.7814 42.4183 29.1319C42.4622 23.7974 39.4868 19.2425 34.6602 19.286C31.0622 19.2425 28.2296 21.1813 27.747 24.6147Z" fill="url(#paint0_linear_6_175)"/>
<path d="M21.2613 24.3929L27.747 24.6147C26.9133 31.6987 21.3603 35.4835 14.1643 35.44C6.00293 35.4835 0 28.8429 0 19.9446C0 9.90529 6.09042 3.75156 14.3395 3.75156C22.2814 3.75156 27.0449 8.24366 27.747 13.9369C24.5632 15.2439 23.5216 16.6565 21.5766 20.0481C21.7703 17.6966 21.9944 17.0334 21.5766 14.616C20.9623 11.3564 18.0253 9.44452 14.515 9.40106C9.7323 9.44452 6.53783 13.2952 6.58171 19.9446C6.53783 25.2791 9.52145 29.7651 14.348 29.7216C17.946 29.7651 20.7787 27.8263 21.2613 24.3929Z" fill="url(#paint1_linear_6_175)"/>
<defs>
<linearGradient id="paint0_linear_6_175" x1="24.5" y1="3.75156" x2="24.5" y2="45.325" gradientUnits="userSpaceOnUse">
<stop stop-color="#8020FA"/>
<stop offset="1" stop-color="#562CFA"/>
</linearGradient>
<linearGradient id="paint1_linear_6_175" x1="24.5" y1="3.75156" x2="24.5" y2="45.325" gradientUnits="userSpaceOnUse">
<stop stop-color="#8020FA"/>
<stop offset="1" stop-color="#562CFA"/>
</linearGradient>
</defs>
</svg>
