<svg width="17" height="17" viewBox="0 0 17 17" fill="none" xmlns="http://www.w3.org/2000/svg">
<path d="M14.5799 9.42999C14.2884 10.8942 13.5047 12.2146 12.359 13.1718C11.2133 14.129 9.77464 14.6654 8.28194 14.6919C6.78924 14.7184 5.33241 14.2334 4.15346 13.3175C2.97452 12.4015 2.14443 11.1098 1.80111 9.65688C1.4578 8.20396 1.62191 6.6773 2.2662 5.33055C2.91048 3.9838 3.99615 2.89801 5.34283 2.25358C6.68951 1.60916 8.21615 1.44488 9.66911 1.78804C11.1221 2.1312 12.4139 2.96114 13.3299 4.13999L12.1699 6.27999C11.7469 5.37824 11.0323 4.64536 10.1415 4.19968C9.25077 3.754 8.23579 3.62152 7.26046 3.82363C6.28513 4.02573 5.40637 4.55063 4.76604 5.31359C4.12572 6.07654 3.7612 7.03303 3.73133 8.02863C3.70146 9.02423 4.00799 10.0008 4.60143 10.8008C5.19486 11.6008 6.04058 12.1774 7.00204 12.4376C7.9635 12.6978 8.98459 12.6264 9.90048 12.235C10.8164 11.8435 11.5736 11.1548 12.0499 10.28L14.3499 5.99999L15.3499 4.21999C15.0291 3.63887 14.6396 3.09834 14.1899 2.60999C12.9489 1.25274 11.2858 0.354499 9.47034 0.0609389C7.65484 -0.232621 5.7934 0.0957136 4.1879 0.992697C2.5824 1.88968 1.32698 3.30271 0.625225 5.00264C-0.0765265 6.70257 -0.183455 8.58972 0.32178 10.358C0.827014 12.1264 1.91478 13.6722 3.40869 14.7448C4.90259 15.8174 6.71502 16.3539 8.55206 16.2673C10.3891 16.1807 12.143 15.476 13.5294 14.2677C14.9158 13.0593 15.8533 11.418 16.1899 9.60999L14.5799 9.42999ZM8.14994 10.69C7.47629 10.69 6.83023 10.4224 6.35389 9.94604C5.87755 9.4697 5.60994 8.82364 5.60994 8.14999C5.60994 7.47634 5.87755 6.83028 6.35389 6.35394C6.83023 5.8776 7.47629 5.60999 8.14994 5.60999C8.82359 5.60999 9.46965 5.8776 9.94599 6.35394C10.4223 6.83028 10.6899 7.47634 10.6899 8.14999C10.6899 8.82364 10.4223 9.4697 9.94599 9.94604C9.46965 10.4224 8.82359 10.69 8.14994 10.69Z" fill="#DC1C77"/>
</svg>
